<svg xmlns="http://www.w3.org/2000/svg" width="120" height="120" viewBox="0 0 120 120" fill="none"><path fill-rule="evenodd" clip-rule="evenodd" d="M60.2294 3.24092C60.6883 2.43786 61.1472 1.86424 61.8355 1.29063C62.5239 0.83174 63.2122 0.372849 64.0153 0.143403C64.6191 -0.0291219 65.3527 -0.00705859 66.0696 0.0145058C66.3062 0.0216204 66.5409 0.0286807 66.7686 0.0286807C67.6864 0.143403 68.4895 0.372849 69.2925 0.83174C70.0956 1.29063 70.6692 1.74952 71.2428 2.43786C71.8164 3.12619 72.1606 3.81453 72.39 4.61759C72.6195 5.42065 72.7342 6.33843 72.6195 7.25621C72.5047 8.174 72.2753 8.97705 71.8164 9.78011C71.3575 10.5832 70.8986 11.1568 70.2103 11.7304C69.522 12.304 68.8336 12.6482 68.0306 12.8776C67.2275 13.1071 66.3097 13.2218 65.3919 13.1071C64.4742 12.9924 63.5564 12.7629 62.868 12.304C61.9503 11.8451 61.2619 11.3862 60.803 10.6979C60.3441 10.0096 59.8853 9.32122 59.6558 8.51816C59.4264 7.71511 59.3116 6.79732 59.4264 5.87954C59.6558 4.84704 59.8853 4.04398 60.2294 3.24092ZM61.8355 7.82983C61.9503 8.40344 62.1797 8.86233 62.5239 9.32122C62.868 9.78012 63.3269 10.1243 63.7858 10.3537C64.2447 10.5832 64.8183 10.8126 65.5067 10.9273C66.0803 11.0421 66.6539 10.9273 67.2275 10.8126C67.8011 10.6979 68.26 10.3537 68.7189 10.0096C69.1778 9.66539 69.522 9.2065 69.7514 8.74761C69.9809 8.174 70.2103 7.60038 70.325 7.02677C70.4397 6.33843 70.325 5.76482 70.2103 5.1912C70.0956 4.61759 69.8661 4.1587 69.522 3.69981C69.1778 3.24092 68.7189 2.89675 68.26 2.6673C67.8011 2.43786 67.1128 2.20841 66.5392 2.09369C65.8508 1.97897 65.2772 2.09369 64.8183 2.20841C64.2447 2.32314 63.7858 2.6673 63.3269 3.01147C62.868 3.35564 62.5239 3.81453 62.2944 4.27342C62.065 4.84704 61.8355 5.42065 61.7208 5.99426C61.6061 6.56788 61.7208 7.25621 61.8355 7.82983ZM49.2162 0.831738L49.2169 0.83685L50.937 0.602292C51.8548 0.487569 52.6579 0.487569 53.3462 0.717015C54.0345 0.94646 54.6081 1.29063 55.067 1.86424C55.5259 2.43786 55.7554 3.01147 55.8701 3.81453C55.9848 4.61759 55.8701 5.30592 55.6407 5.99426C55.4112 6.6826 54.9523 7.14149 54.264 7.60038C53.6904 8.05927 52.8873 8.28872 51.9695 8.40344L50.3598 8.62294L51.0517 13.3365L48.9867 13.6807L47.1512 1.06118L49.2162 0.831738ZM49.4856 2.66707L50.0912 6.79272L51.7401 6.56787C52.199 6.45315 52.6579 6.33843 53.002 6.10898C53.3462 5.87954 53.5756 5.65009 53.6904 5.30592C53.9198 4.84703 53.9198 4.50287 53.9198 4.04397C53.8051 3.58508 53.6904 3.24092 53.4609 3.01147C53.2315 2.78202 52.8873 2.55258 52.5431 2.43786C52.0842 2.32313 51.6254 2.32313 51.1665 2.43786L49.4856 2.66707ZM93.8434 9.78012L91.6637 8.74761L85.354 15.0574L86.0423 5.30593L78.8148 11.8451L79.8473 2.89675L77.6675 1.86424L76.5203 16.0899L83.9773 9.78012L83.5184 19.5315L93.8434 9.78012ZM103.48 18.8432L98.8909 14.4838L98.8908 14.4837L97.973 13.566L89.2541 22.7438L90.7455 24.2352L90.8142 24.1628L94.8755 28.021L96.1375 26.6444L92.1003 22.8091L94.8393 19.9259L98.6613 23.5468L99.9233 22.2849L96.068 18.6325L98.1926 16.396L102.218 20.2199L103.48 18.8432ZM107.954 24.3502L109.445 26.5296C109.904 27.3327 110.248 28.021 110.363 28.8241C110.478 29.5124 110.363 30.3155 110.134 30.8891C109.904 31.5774 109.331 32.0363 108.757 32.4952C108.069 32.9541 107.38 33.1836 106.692 33.1836C106.004 33.1836 105.315 33.0688 104.627 32.6099C104.388 32.4904 104.163 32.3431 103.951 32.1682L101.759 37.8872L100.382 35.7075L102.576 30.4063L101.871 29.3759L97.8583 32.0363L96.7111 30.3155L107.266 23.3174L107.954 24.3499L107.954 24.3502ZM103.374 28.379L104.283 29.7419C104.512 30.2008 104.856 30.4302 105.201 30.6597C105.545 30.8891 105.889 31.0038 106.233 31.0038C106.577 31.0038 107.036 30.8891 107.38 30.6597C107.724 30.4302 108.069 30.086 108.183 29.7419C108.298 29.3977 108.413 29.0535 108.298 28.5946C108.183 28.1358 108.069 27.7916 107.839 27.4474L106.901 26.0405L103.374 28.379ZM119.656 57.0459L120 59.4551L106.119 56.3576L114.379 51.195L104.971 48.6711L117.361 41.5583L117.706 43.9675L109.79 48.2122L119.312 50.5067L110.822 55.4398L119.656 57.0459ZM117.476 65.8795C117.017 65.1912 116.444 64.6176 115.755 64.1587C115.067 63.6998 114.264 63.3556 113.346 63.2409C112.429 63.1262 111.511 63.1262 110.708 63.2409C109.905 63.3556 109.102 63.6998 108.413 64.1587C107.725 64.6176 107.151 65.1912 106.692 65.8795C106.119 66.6826 105.889 67.4857 105.66 68.4034C105.43 69.3212 105.43 70.239 105.66 71.0421C105.775 71.8451 106.119 72.6482 106.578 73.3365C107.037 74.0249 107.725 74.5985 108.413 75.0574C109.102 75.5163 109.905 75.7457 110.822 75.9751C111.74 76.0899 112.658 76.0899 113.461 75.9751C114.264 75.8604 115.067 75.5163 115.755 75.0574C116.444 74.5985 117.017 73.9101 117.476 73.2218C117.935 72.5335 118.165 71.7304 118.394 70.8126C118.509 69.8948 118.509 68.9771 118.394 68.174C118.279 67.3709 117.935 66.5679 117.476 65.8795ZM109.446 65.8795C109.905 65.6501 110.478 65.4207 111.052 65.3059C111.625 65.1912 112.314 65.1912 112.887 65.4207C113.576 65.5354 114.035 65.6501 114.608 65.9943C115.182 66.3384 115.526 66.6826 115.87 67.1415C116.214 67.6004 116.444 68.0593 116.559 68.6329C116.673 69.0918 116.673 69.7801 116.559 70.3537C116.444 70.9273 116.214 71.501 115.87 71.9599C115.526 72.4187 115.182 72.7629 114.723 73.1071C114.264 73.3365 113.69 73.566 113.117 73.6807C112.543 73.7954 111.97 73.7954 111.281 73.6807C110.593 73.566 110.019 73.3365 109.56 72.9924C108.987 72.6482 108.643 72.304 108.299 71.8451C107.954 71.3862 107.725 70.9273 107.61 70.3537C107.495 69.7801 107.495 69.2065 107.61 68.6329C107.725 68.0593 107.954 67.4857 108.299 67.0268C108.643 66.5679 108.987 66.2237 109.446 65.8795ZM99.4649 85.0382L105.609 84.0782C105.568 84.3175 105.545 84.5576 105.545 84.8088C105.545 85.6119 105.775 86.3002 106.119 86.8738C106.463 87.4474 107.037 87.9063 107.725 88.2505C108.413 88.5947 109.102 88.8241 109.79 88.7094C110.478 88.5947 111.167 88.3652 111.74 87.9063C112.314 87.4474 112.773 86.7591 113.232 85.956L114.004 84.3345L114.035 84.3499L114.952 82.3996L103.71 76.7782L102.792 78.7285L106.891 80.7781L106.305 82.0093L100.612 82.7438L99.4649 85.0382ZM108.482 81.5736L112.245 83.4551L111.511 84.9235C111.281 85.3824 111.052 85.7266 110.708 85.956C110.364 86.1855 110.019 86.4149 109.675 86.4149C109.331 86.4149 108.987 86.4149 108.528 86.1855C108.069 85.956 107.84 85.7266 107.61 85.3824C107.495 85.153 107.381 84.6941 107.381 84.3499C107.381 83.891 107.495 83.5469 107.725 83.088L108.482 81.5736ZM100.956 93.8719L102.103 101.788L103.709 99.8375L102.679 92.7262L106.807 96.1664L108.184 94.4455L98.5468 86.4149L97.1701 88.1358L101.713 91.9216H93.9579L92.2371 93.8719H100.956ZM87.6821 105.379L89.6984 108.963L88.2218 109.818C87.7629 110.048 87.3041 110.277 86.9599 110.277C86.6157 110.277 86.2716 110.163 85.9274 110.048C85.5832 109.933 85.3538 109.589 85.1243 109.245C84.8949 108.786 84.7802 108.442 84.7802 108.098C84.7802 107.753 84.8949 107.409 85.1243 107.065L85.1244 107.065C85.3538 106.836 85.698 106.491 86.1568 106.262L87.6821 105.379ZM84.436 99.608L86.7751 103.767L85.2391 104.656C84.436 105.115 83.8624 105.688 83.4035 106.262C82.9446 106.836 82.7151 107.524 82.7151 108.212C82.7151 108.901 82.9446 109.589 83.2888 110.277C83.6329 110.966 84.2065 111.424 84.7802 111.769C85.4685 112.113 86.1568 112.342 86.8452 112.228C87.5335 112.113 88.3366 111.883 89.1396 111.424L90.6054 110.576L90.631 110.621L92.4666 109.589L86.2715 98.5755L84.436 99.608ZM72.7389 109.93L67.9161 106.147L70.44 105.459L74.7492 109.05L76.1217 108.676L74.7995 104.197L76.8645 103.623L80.4209 115.669L78.3559 116.243L78.353 116.233L76.635 116.702C75.7172 116.931 74.9142 117.046 74.2258 116.931C73.5375 116.816 72.8492 116.472 72.2756 116.013C71.7019 115.554 71.3578 114.981 71.1283 114.178C70.8989 113.375 70.8989 112.686 71.1283 111.998C71.3578 111.31 71.7019 110.736 72.2756 110.277C72.4219 110.16 72.5757 110.043 72.7389 109.93ZM77.8115 114.399L76.629 110.394L75.0289 110.851C74.57 110.966 74.2258 111.195 73.8817 111.424C73.5375 111.654 73.4228 111.998 73.3081 112.342C73.1933 112.686 73.1933 113.145 73.3081 113.489C73.4228 113.948 73.6522 114.293 73.8817 114.522C74.1111 114.751 74.4553 114.866 74.9142 114.981C75.2583 114.981 75.7172 114.981 76.1761 114.866L77.8115 114.399ZM66.7688 115.325C66.4246 116.128 65.9657 116.816 65.3921 117.39C64.8185 117.964 64.1301 118.423 63.3271 118.767C62.524 119.111 61.721 119.226 60.6885 119.34C59.7707 119.34 58.8529 119.226 58.0498 118.881C57.2468 118.537 56.5584 118.078 55.9848 117.505C55.4112 116.931 54.9523 116.243 54.6081 115.44C54.264 114.637 54.1493 113.834 54.0345 112.801C54.0345 111.883 54.1493 110.966 54.4934 110.163C54.8376 109.359 55.2965 108.671 55.8701 108.098C56.4437 107.524 57.132 107.065 57.9351 106.721C58.7382 106.377 59.5412 106.147 60.5737 106.147C61.4915 106.147 62.4093 106.262 63.2123 106.606C64.0154 106.95 64.7038 107.409 65.2774 107.983C65.851 108.556 66.3099 109.245 66.654 110.048C66.9982 110.851 67.1129 111.654 67.2276 112.686C67.2276 113.719 66.9982 114.522 66.7688 115.325ZM64.589 110.966C64.3596 110.392 64.0154 109.933 63.6712 109.589C63.3271 109.245 62.8682 108.901 62.2946 108.671C61.721 108.442 61.1473 108.327 60.5737 108.327C60.0001 108.327 59.4265 108.442 58.8529 108.671C58.4141 108.847 58.1096 109.089 57.7852 109.348C57.6856 109.427 57.5841 109.508 57.4762 109.589C57.132 110.048 56.7879 110.507 56.5584 111.08C56.329 111.654 56.2143 112.228 56.329 112.916C56.329 113.604 56.4437 114.178 56.6732 114.751C56.9026 115.325 57.2468 115.784 57.5909 116.128C57.9351 116.472 58.394 116.816 58.9676 117.046C59.5412 117.275 60.1148 117.39 60.6885 117.39C61.3768 117.39 61.9504 117.275 62.4093 117.046C62.8481 116.87 63.1526 116.628 63.477 116.369C63.5766 116.29 63.6781 116.209 63.786 116.128C64.1301 115.669 64.4743 115.21 64.7038 114.637C64.9332 114.063 65.0479 113.489 64.9332 112.801C64.8982 112.591 64.8739 112.392 64.8505 112.2L64.8504 112.2C64.7971 111.763 64.7485 111.364 64.589 110.966ZM38.4322 109.13L44.2831 110.851L44.5125 109.359L40.8414 108.212C41.0709 107.868 41.3003 107.524 41.6445 107.18C41.7974 107.027 42.0524 106.874 42.3073 106.721C42.4348 106.644 42.5623 106.568 42.677 106.491C43.0211 106.262 43.48 106.147 43.9389 106.147C44.3191 106.147 44.6992 106.226 45.1446 106.318L45.1446 106.318L45.1449 106.318L45.1459 106.318C45.2035 106.33 45.2621 106.343 45.3221 106.355L45.4303 106.377C46.0039 106.606 46.5776 106.836 47.0364 107.18C47.4953 107.524 47.8395 107.983 48.069 108.442C48.2984 108.901 48.5278 109.474 48.5278 110.048C48.5278 110.621 48.5278 111.195 48.2984 111.883C48.1837 112.572 47.8395 113.145 47.4953 113.604C47.1512 114.063 46.6923 114.522 46.2334 114.751C45.7745 114.981 45.2009 115.21 44.6273 115.21C44.0537 115.21 43.48 115.21 42.9064 114.981C42.1034 114.751 41.5298 114.407 40.9561 113.834C40.3825 113.26 40.0384 112.686 39.9236 111.998L37.9733 112.686C38.2028 113.375 38.547 113.948 38.8911 114.522C39.35 114.981 39.8089 115.44 40.3825 115.899C40.9561 116.243 41.6445 116.587 42.4475 116.816C43.3653 117.161 44.1684 117.275 45.0862 117.161C46.0039 117.046 46.807 116.816 47.4953 116.472C48.2984 116.013 48.872 115.554 49.4456 114.866C50.0192 114.178 50.4781 113.375 50.7076 112.457C50.937 111.539 51.0517 110.736 50.937 109.818C50.937 108.901 50.7076 108.098 50.2487 107.409C49.9045 106.606 49.3309 105.918 48.6426 105.459C47.9542 105 47.1512 104.541 46.2334 104.312C45.2009 104.082 44.2831 103.967 43.48 104.082C42.677 104.197 41.8739 104.541 41.1856 105C40.4972 105.459 39.9236 106.033 39.4647 106.721C39.0059 107.409 38.6617 108.212 38.4322 109.13ZM33.1186 105.919L30.8466 109.562L29.2545 108.556C29.1352 108.437 29.0159 108.332 28.9014 108.23C28.6855 108.039 28.4866 107.863 28.3367 107.639C28.1073 107.294 27.9926 106.95 27.9926 106.606C27.9926 106.262 28.1073 105.803 28.3367 105.459C28.4267 105.369 28.5088 105.279 28.5872 105.193C28.8087 104.95 29.0003 104.741 29.2545 104.656C29.5987 104.541 30.0575 104.541 30.4017 104.541H30.4018C30.7819 104.541 31.0833 104.699 31.4365 104.883L31.4366 104.883C31.5097 104.921 31.585 104.961 31.6637 105L33.1186 105.919ZM36.4821 100.526L34.0453 104.433L32.8695 103.691L32.6962 98.2314L30.5165 96.8547L30.8893 102.819C30.6935 102.772 30.4941 102.735 30.287 102.706C29.484 102.591 28.7956 102.706 28.222 103.05C27.5337 103.394 27.0748 103.853 26.6159 104.541C26.2717 105.229 26.0423 105.918 26.0423 106.606C26.0423 107.294 26.157 107.868 26.6159 108.556C27.0748 109.245 27.6484 109.818 28.4515 110.277L29.8498 111.16L29.8281 111.195L31.6637 112.342L38.3176 101.673L36.4821 100.526ZM19.388 103.623L19.3881 103.623L20.3059 104.541L29.1396 95.5927L28.2218 94.675L28.3365 94.5602L23.8623 90.086L22.4857 91.4627L26.3944 95.3714L23.5448 98.258L19.847 94.5602L18.5851 95.8222L22.291 99.5281L20.1823 101.664L16.1759 97.6577L14.914 99.0344L18.8217 103.042L18.8145 103.05L19.388 103.623ZM18.6999 87.9063C18.8147 87.4474 18.9294 86.9885 18.8147 86.5296C18.8147 86.1495 18.6572 85.8481 18.4727 85.4949C18.4345 85.4218 18.3951 85.3464 18.3558 85.2677C18.1263 84.9235 17.8969 84.6941 17.6674 84.4646C17.438 84.3499 17.0938 84.2352 16.8644 84.2352C16.592 84.2352 16.3915 84.307 16.1492 84.3939L16.1489 84.3939C16.085 84.4168 16.0183 84.4407 15.9466 84.4646C15.6024 84.6941 15.2583 85.0382 15.1435 85.3824C15.0288 85.7266 15.0288 86.0708 15.0288 86.5296C15.0288 86.9098 15.1075 87.2899 15.1998 87.7353L15.1999 87.7359C15.219 87.828 15.2386 87.9228 15.2583 88.021C15.3204 88.2074 15.3488 88.3937 15.3801 88.5982C15.4066 88.7715 15.4351 88.9578 15.4877 89.1683V90.4302C15.4877 90.8891 15.2583 91.348 15.0288 91.6922C14.7994 92.1511 14.4552 92.4952 13.8816 92.8394C13.308 93.1836 12.7344 93.413 12.1607 93.2983C11.5871 93.2983 11.0135 93.0688 10.4399 92.7247C9.86629 92.3805 9.4074 91.9216 8.9485 91.2333C8.60434 90.6597 8.26017 89.9713 8.26017 89.3977C8.14544 88.8241 8.26017 88.2505 8.37489 87.6769C8.48961 87.1033 8.71906 86.6444 8.9485 86.1855L10.6693 87.1033C10.5546 87.6769 10.4399 88.021 10.3252 88.3652C10.2105 88.7094 10.2105 89.0535 10.2105 89.3977C10.2105 89.7419 10.3252 90.0861 10.5546 90.4302C10.7841 90.7744 11.0135 91.0038 11.243 91.1186C11.4724 91.2333 11.7018 91.348 11.9313 91.348C12.1607 91.348 12.3902 91.2333 12.6196 91.1186C12.7796 91.0386 12.8838 90.9028 12.9711 90.789C13.0091 90.7396 13.0438 90.6944 13.0785 90.6597C13.1932 90.4302 13.308 90.2008 13.308 89.9713V88.9388C13.308 88.5947 13.1932 88.021 13.0785 87.5621C13.0176 87.3793 12.989 87.1642 12.9584 86.9339C12.9314 86.7305 12.9029 86.5154 12.8491 86.3002C12.8491 85.8413 12.8491 85.4971 12.9638 85.0382C13.0785 84.5794 13.1932 84.2352 13.4227 83.7763C13.6521 83.4321 13.9963 83.088 14.4552 82.7438C14.8691 82.4334 15.3763 82.3096 15.8085 82.2041C15.8555 82.1927 15.9016 82.1814 15.9466 82.1702C16.4055 82.1702 16.9791 82.1702 17.438 82.2849C17.7439 82.3614 18.0498 82.5398 18.3558 82.7183C18.5087 82.8075 18.6617 82.8968 18.8147 82.9732C19.2736 83.3174 19.6177 83.6616 19.8472 84.1205C20.1913 84.6941 20.5355 85.3824 20.5355 86.0707C20.6502 86.7591 20.5355 87.4474 20.4208 88.1358C20.3061 88.8241 19.9619 89.3977 19.6177 89.9713L17.7822 89.283C18.3558 88.8241 18.5852 88.3652 18.6999 87.9063ZM13.7665 76.7782C13.6518 77.2371 13.537 77.5813 13.3076 78.0402C13.2634 78.1064 13.2192 78.177 13.1734 78.2501C12.9813 78.5568 12.7603 78.9095 12.3898 79.1874L13.9959 80.3346C14.4548 79.8757 14.799 79.3021 15.1431 78.7285C15.4873 78.1549 15.602 77.4665 15.7168 76.7782C15.8315 76.0899 15.7168 75.4015 15.4873 74.7132L15.4873 74.7131C15.2578 74.2543 15.0284 73.7954 14.6843 73.3365C14.3401 72.8776 13.9959 72.5335 13.537 72.304C13.2411 72.1067 12.7754 71.9942 12.359 71.8936C12.2911 71.8773 12.2246 71.8612 12.1604 71.8451C11.7015 71.8451 11.1279 71.8451 10.5542 72.0746C10.0953 72.1893 9.63646 72.4187 9.29229 72.7629C9.0228 72.9426 8.82365 73.2629 8.63976 73.5587C8.5888 73.6407 8.53902 73.7207 8.48923 73.7954C8.43187 74.0249 8.37451 74.2256 8.31715 74.4264C8.25978 74.6272 8.20242 74.8279 8.14506 75.0574C8.03034 75.5163 8.03034 75.8604 8.03034 76.3193C8.03034 76.8929 8.03034 77.3518 7.91561 77.696C7.86756 77.8882 7.83964 78.0603 7.81498 78.2122C7.78076 78.4231 7.75284 78.5952 7.68617 78.7285C7.57145 79.0727 7.45672 79.3021 7.342 79.4168C7.22728 79.5316 6.99783 79.6463 6.76839 79.761H6.08005C5.85061 79.761 5.50644 79.5316 5.39171 79.4168C5.27699 79.3021 5.04755 78.9579 4.93282 78.6138C4.8181 78.1549 4.8181 77.8107 4.8181 77.4665L5.16227 76.434C5.27699 76.2046 5.50644 75.8604 5.73588 75.631L4.35921 74.369C4.01504 74.7132 3.67087 75.1721 3.44143 75.631C3.21198 76.0899 3.09726 76.6635 2.98254 77.2371C2.86781 77.8107 2.98254 78.4991 3.21198 79.1874C3.44143 79.9904 3.7856 80.5641 4.12976 81.1377C4.58865 81.5966 5.16227 81.9407 5.73588 82.0555C6.3095 82.1702 6.88311 82.1702 7.57145 81.9407C8.03034 81.7113 8.48923 81.4818 8.8334 81.1377C9.17756 80.7935 9.40701 80.4493 9.52173 79.9904C9.75118 79.5316 9.8659 79.1874 9.8659 78.7285C9.98062 78.2696 9.98062 77.9254 9.98062 77.5813C9.98062 77.2785 10.0126 77.0077 10.0428 76.7519C10.0698 76.5232 10.0953 76.3065 10.0953 76.0899C10.0953 75.631 10.2101 75.2868 10.4395 74.9426C10.5542 74.5985 10.8984 74.369 11.3573 74.2543C11.4013 74.2396 11.4434 74.225 11.4841 74.2108L11.4849 74.2105L11.4852 74.2104L11.4854 74.2103C11.7627 74.1138 11.9754 74.0397 12.2751 74.1396C12.6192 74.2543 12.8487 74.369 13.0781 74.5985C13.3076 74.8279 13.537 75.1721 13.6518 75.5163C13.7665 75.8604 13.8812 76.3193 13.7665 76.7782ZM1.95029 60.4083L6.19503 60.4855V58.652C6.19503 58.1931 6.08031 57.7342 5.96558 57.3901C5.85086 57.0459 5.62141 56.7017 5.27725 56.587C4.93308 56.3576 4.58891 56.2428 4.13002 56.2428C3.67113 56.2428 3.32696 56.3576 2.98279 56.587C2.63862 56.8164 2.29446 57.0459 2.17973 57.3901C2.06501 57.7342 1.95029 58.1931 1.95029 58.652V60.4083ZM12.6195 60.6023L7.91587 60.5168V59.1044L12.7342 56.0134V53.4895L7.75668 56.9644C7.68583 56.669 7.58804 56.3902 7.45698 56.1281C7.11281 55.4398 6.65392 54.8662 6.08031 54.522C5.50669 54.1778 4.81836 53.9484 4.0153 53.9484C3.21224 53.9484 2.5239 54.1778 1.95029 54.522C1.37667 54.9809 0.917782 55.4398 0.573614 56.1281C0.229445 56.8164 0 57.6195 0 58.5373V60.3729V61.1759V62.4379L12.6195 62.782V60.6023ZM1.42452 46.733L1.37645 46.7208L0.917558 48.6711L13.1929 51.8834L13.6518 49.8184L13.6039 49.8063L15.0285 44.3117L13.1929 43.8528L11.8653 49.3676L8.09745 48.4168L9.40704 43.2792L7.57148 42.8203L6.26291 47.9539L3.25911 47.1959L4.58869 41.673L2.75312 41.2142L1.42452 46.733ZM14.3403 38.805C14.7992 38.6902 15.2581 38.4608 15.6023 38.2314C15.9465 38.0019 16.2906 37.6577 16.4054 37.1989C16.6348 36.8547 16.6348 36.5105 16.6348 36.1663C16.6348 35.894 16.563 35.6935 16.4761 35.4512C16.4532 35.3872 16.4293 35.3204 16.4054 35.2486C16.2906 34.9044 16.0612 34.7897 15.717 34.675C15.2581 34.4455 14.914 34.4455 14.5698 34.4455L14.5698 34.4455C14.2256 34.5602 13.8814 34.675 13.5373 34.9044C13.1931 35.1338 12.8489 35.478 12.3901 35.9369C12.2753 36.0516 12.1319 36.1664 11.9885 36.2811C11.8451 36.3958 11.7017 36.5105 11.587 36.6252C11.2428 36.8547 10.8987 37.0841 10.4398 37.3136C10.1038 37.4815 9.82939 37.5265 9.48141 37.5836C9.35403 37.6045 9.2168 37.627 9.0631 37.6577C8.60421 37.6577 8.03059 37.543 7.5717 37.3136C6.99809 36.9694 6.5392 36.6252 6.19503 36.0516C5.85086 35.478 5.73614 34.9044 5.73614 34.2161C5.73614 33.5277 5.96558 32.8394 6.30975 32.2658C6.65392 31.5774 7.11281 31.1185 7.5717 30.6597C8.03059 30.3155 8.60421 29.9713 9.0631 29.8566C9.16139 29.8369 9.25632 29.8173 9.34845 29.7982L9.34867 29.7982L9.34879 29.7981C9.79418 29.7059 10.1743 29.6271 10.5545 29.6271L10.6692 31.5774C10.4971 31.5774 10.325 31.6061 10.153 31.6348C9.98088 31.6635 9.80879 31.6922 9.63671 31.6922C9.42067 31.6922 9.24983 31.873 9.09582 32.036C9.00449 32.1327 8.91907 32.2231 8.83365 32.2658C8.60421 32.3805 8.26004 32.8394 8.03059 33.1836C7.80115 33.5277 7.80115 33.8719 7.80115 34.1013C7.80115 34.4455 7.80115 34.6749 8.03059 34.7897C8.19057 34.8697 8.29478 35.0054 8.3821 35.1192C8.42001 35.1686 8.45475 35.2138 8.48948 35.2486C8.71893 35.3633 8.94837 35.3633 9.17782 35.3633C9.40727 35.3633 9.63671 35.2486 9.86616 35.1338C10.0956 35.0191 10.4398 34.7897 10.7839 34.5602C11.1281 34.3308 11.4723 33.9866 11.8164 33.6424C11.9885 33.5277 12.1319 33.3843 12.2753 33.2409C12.4187 33.0975 12.5621 32.9541 12.7342 32.8394C13.0784 32.6099 13.4226 32.3805 13.8815 32.2658C13.96 32.2461 14.0352 32.2265 14.1082 32.2074L14.1086 32.2073L14.1087 32.2073C14.4618 32.1151 14.7632 32.0363 15.1434 32.0363C15.6023 32.0363 16.0612 32.1511 16.5201 32.4952C17.0937 32.7247 17.4379 33.0688 17.782 33.5277C18.1262 33.9866 18.2409 34.4455 18.3556 34.9044C18.4704 35.3633 18.4704 35.9369 18.4704 36.3958C18.3556 36.9694 18.2409 37.4283 18.0115 37.8872C17.6673 38.5755 17.2084 39.0344 16.6348 39.4933C16.0612 39.9522 15.4876 40.1816 14.7992 40.4111C14.1109 40.6405 13.5373 40.7553 12.8489 40.6405L12.7342 39.0344C13.3078 39.0344 13.8815 38.9197 14.3403 38.805ZM19.1587 28.021L12.8489 22.5143L11.4723 24.1205L17.782 29.8566C18.2409 30.3155 18.8145 30.5449 19.3881 30.7744C19.9618 31.0038 20.5354 31.1185 21.109 31.0038C21.6826 30.8891 22.1415 30.7744 22.7151 30.4302C23.2887 30.086 23.7476 29.6272 24.2065 29.1683C24.6654 28.7094 25.0096 28.1358 25.239 27.5621C25.3537 26.9885 25.4685 26.4149 25.4685 25.8413C25.4685 25.3514 25.3011 24.9451 25.1093 24.4796C25.0765 24.4001 25.043 24.3189 25.0096 24.2352C24.7801 23.6616 24.4359 23.2027 23.8623 22.7438L17.4379 17.2371L16.0612 18.8432L22.6004 24.2352C22.8499 24.4847 23.0392 24.7946 23.2118 25.0773C23.2773 25.1845 23.3404 25.2878 23.4034 25.3824C23.4152 25.4293 23.4269 25.4749 23.4383 25.5196C23.5392 25.9128 23.6212 26.2323 23.5182 26.6444C23.4034 27.1033 23.174 27.4474 22.8298 27.9063C22.4857 28.2505 22.1415 28.5946 21.6826 28.7094C21.2237 28.8241 20.8795 28.8241 20.4207 28.7094C19.9618 28.5946 19.5029 28.3652 19.1587 28.021ZM23.5182 12.0746L29.9426 20.6788L33.9579 17.696L35.1052 19.1874L29.369 23.4321L21.7973 13.3365L23.5182 12.0746ZM36.7115 4.27342L28.9104 8.28872L29.7134 9.89484L32.6962 8.40344L37.5146 17.9254L39.4649 17.0076L34.6465 7.48566L37.6293 5.99426L36.7115 4.27342Z" fill="url(#paint0_linear_124_1803)"></path><defs><linearGradient id="paint0_linear_124_1803" x1="1.18734e-07" y1="59.6845" x2="120.459" y2="59.6845" gradientUnits="userSpaceOnUse"><stop stop-color="#1AFABD"></stop><stop offset="1" stop-color="#CCFF02"></stop></linearGradient></defs></svg>