<svg xmlns="http://www.w3.org/2000/svg" width="1366" height="308" viewBox="0 0 1366 308" fill="none"><path d="M-12.4 14H157.6V72.4H52.8V127.2H153.6V181.6H52.8V294H-12.4V14ZM208.694 14H277.494V294H208.694V14ZM308.819 74.8V14H530.419V74.8H453.619V294H385.619V74.8H308.819ZM754.238 14H819.438V308L626.238 136.8V294H561.038V-5.72205e-06L754.238 171.2V14ZM878.225 14H1064.23V69.6H943.425V119.6H1056.23V174.4H943.425V238.4H1064.23V294H878.225V14ZM1150.04 195.6C1158.57 210.8 1168.57 222.933 1180.04 232C1191.77 240.8 1204.71 245.2 1218.84 245.2C1228.97 245.2 1237.11 242.8 1243.24 238C1249.64 232.933 1252.84 226.133 1252.84 217.6C1252.84 210.667 1250.97 204.933 1247.24 200.4C1243.51 195.867 1237.51 191.6 1229.24 187.6C1221.24 183.6 1210.44 179.067 1196.84 174C1189.91 171.333 1182.17 167.867 1173.64 163.6C1165.11 159.333 1156.84 153.867 1148.84 147.2C1141.11 140.533 1134.71 132.4 1129.64 122.8C1124.57 112.933 1122.04 101.2 1122.04 87.6C1122.04 70.8 1126.31 56.5333 1134.84 44.8C1143.64 32.8 1155.37 23.6 1170.04 17.2C1184.97 10.8 1201.51 7.59999 1219.64 7.59999C1238.57 7.59999 1254.84 10.6667 1268.44 16.8C1282.04 22.9333 1293.37 30.6667 1302.44 40C1311.51 49.3333 1318.44 58.8 1323.24 68.4L1271.64 97.2C1265.51 87.0667 1258.17 79.0667 1249.64 73.2C1241.11 67.0666 1231.37 64 1220.44 64C1210.84 64 1203.51 66.1333 1198.44 70.4C1193.64 74.4 1191.24 79.4667 1191.24 85.6C1191.24 95.2 1196.57 103.067 1207.24 109.2C1218.17 115.067 1233.37 121.467 1252.84 128.4C1265.91 132.933 1277.77 139.067 1288.44 146.8C1299.37 154.267 1308.04 163.6 1314.44 174.8C1321.11 185.733 1324.44 198.933 1324.44 214.4C1324.44 233.333 1319.51 249.467 1309.64 262.8C1299.77 275.867 1286.84 285.867 1270.84 292.8C1255.11 299.467 1238.44 302.8 1220.84 302.8C1202.71 302.8 1185.77 299.6 1170.04 293.2C1154.57 286.533 1140.97 277.733 1129.24 266.8C1117.77 255.6 1108.97 243.2 1102.84 229.6L1150.04 195.6ZM1400.04 195.6C1408.57 210.8 1418.57 222.933 1430.04 232C1441.77 240.8 1454.71 245.2 1468.84 245.2C1478.97 245.2 1487.11 242.8 1493.24 238C1499.64 232.933 1502.84 226.133 1502.84 217.6C1502.84 210.667 1500.97 204.933 1497.24 200.4C1493.51 195.867 1487.51 191.6 1479.24 187.6C1471.24 183.6 1460.44 179.067 1446.84 174C1439.91 171.333 1432.17 167.867 1423.64 163.6C1415.11 159.333 1406.84 153.867 1398.84 147.2C1391.11 140.533 1384.71 132.4 1379.64 122.8C1374.57 112.933 1372.04 101.2 1372.04 87.6C1372.04 70.8 1376.31 56.5333 1384.84 44.8C1393.64 32.8 1405.37 23.6 1420.04 17.2C1434.97 10.8 1451.51 7.59999 1469.64 7.59999C1488.57 7.59999 1504.84 10.6667 1518.44 16.8C1532.04 22.9333 1543.37 30.6667 1552.44 40C1561.51 49.3333 1568.44 58.8 1573.24 68.4L1521.64 97.2C1515.51 87.0667 1508.17 79.0667 1499.64 73.2C1491.11 67.0666 1481.37 64 1470.44 64C1460.84 64 1453.51 66.1333 1448.44 70.4C1443.64 74.4 1441.24 79.4667 1441.24 85.6C1441.24 95.2 1446.57 103.067 1457.24 109.2C1468.17 115.067 1483.37 121.467 1502.84 128.4C1515.91 132.933 1527.77 139.067 1538.44 146.8C1549.37 154.267 1558.04 163.6 1564.44 174.8C1571.11 185.733 1574.44 198.933 1574.44 214.4C1574.44 233.333 1569.51 249.467 1559.64 262.8C1549.77 275.867 1536.84 285.867 1520.84 292.8C1505.11 299.467 1488.44 302.8 1470.84 302.8C1452.71 302.8 1435.77 299.6 1420.04 293.2C1404.57 286.533 1390.97 277.733 1379.24 266.8C1367.77 255.6 1358.97 243.2 1352.84 229.6L1400.04 195.6Z" fill="white" fill-opacity="0.08"></path></svg>