<svg width="69" height="46" viewBox="0 0 69 46" fill="none" xmlns="http://www.w3.org/2000/svg">
<path d="M2.30721 0L19.0345 10.6708H11.1034L0 3.60502L2.30721 0ZM57.536 35.185H49.4608L66.3323 46L68.6395 42.395L57.536 35.185ZM4.18182 16.5831V21.3417H7.64263V24.2257H4.18182V32.5893H0.144201V13.8433H8.21944V16.5831H4.18182ZM21.0533 19.7555V26.6771C21.0533 27.9749 20.9091 29.1285 20.4765 29.9937C20.1881 30.8589 19.4671 31.5799 18.7461 32.1567C17.8809 32.5893 16.8715 32.8777 15.4295 32.8777C13.9875 32.8777 12.9781 32.5893 12.1129 32.1567C11.2476 31.5799 10.6708 31.0031 10.3824 29.9937C10.094 29.1285 9.80564 27.9749 9.80564 26.6771V19.7555C9.80564 18.4577 9.94984 17.3041 10.3824 16.4389C10.6708 15.5737 11.3918 14.8527 12.1129 14.2759C12.9781 13.8433 13.9875 13.5549 15.4295 13.5549C16.8715 13.5549 18.0251 13.8433 18.7461 14.2759C19.6113 14.7085 20.1881 15.4295 20.4765 16.4389C20.9091 17.3041 21.0533 18.4577 21.0533 19.7555ZM16.8715 18.7461C16.8715 18.4577 16.8715 18.0251 16.7273 17.7367C16.7273 17.4483 16.5831 17.1599 16.2947 16.8715C16.0063 16.5831 15.7179 16.5831 15.2853 16.5831C14.8527 16.5831 14.5643 16.7273 14.4201 16.8715C14.4201 17.0157 14.2759 17.3041 14.1317 17.5925C14.1317 17.8809 13.9875 18.3135 13.9875 18.6019V27.5423C13.9875 27.8307 13.9875 28.2633 14.1317 28.5517C14.1317 28.8401 14.2759 29.1285 14.5643 29.4169C14.7085 29.5611 14.9969 29.7053 15.4295 29.7053C15.8621 29.7053 16.1505 29.5611 16.4389 29.4169C16.5831 29.1285 16.7273 28.9843 16.8715 28.5517C16.8715 28.2633 17.0157 27.8307 17.0157 27.5423V18.7461H16.8715ZM35.185 32.5893H30.8589L28.8401 24.2257H27.6865V32.5893H23.5047V13.8433H28.8401C30.1379 13.8433 31.1473 13.9875 32.1567 14.2759C33.0219 14.5643 33.7429 14.9969 34.3197 15.7179C34.8965 16.4389 35.0407 17.4483 35.0407 18.7461C35.0407 19.4671 35.0408 20.1881 34.8966 20.7649C34.7523 21.3417 34.6082 21.9185 34.1755 22.3511C33.8871 22.7837 33.3103 23.2163 32.7335 23.5047L35.185 32.5893ZM31.1473 19.1787C31.1473 18.3135 31.0031 17.7367 30.7147 17.3041C30.4263 16.8715 29.8495 16.5831 29.1285 16.5831H27.8307V21.7743H28.8401C29.4169 21.7743 29.8495 21.6301 30.2821 21.4859C30.5705 21.3417 30.8589 20.9091 31.0031 20.6207C31.0031 20.1881 31.1473 19.7555 31.1473 19.1787ZM51.047 32.5893H48.163L47.8746 20.1881L45.7116 32.5893H43.116L40.8088 20.0439L40.3762 32.5893H37.348L37.6364 13.8433H42.1066L44.1254 24.6583L46.2884 13.8433H50.6144L51.047 32.5893ZM57.536 13.8433V32.5893H53.3542V13.8433H57.536ZM68.7837 29.7053V32.4451H60.4201V13.6991H68.7837V16.5831H64.4577V21.1975H67.7743V24.0815H64.4577V29.7053H68.7837Z" fill="white"/>
</svg>